<?xml version="1.0" standalone="no"?>
<!DOCTYPE svg PUBLIC "-//W3C//DTD SVG 20010904//EN"
 "http://www.w3.org/TR/2001/REC-SVG-20010904/DTD/svg10.dtd">
<svg version="1.0" xmlns="http://www.w3.org/2000/svg"
 width="269.000000pt" height="269.000000pt" viewBox="0 0 269.000000 269.000000"
 preserveAspectRatio="xMidYMid meet">
<metadata>
Created by potrace 1.11, written by Peter Selinger 2001-2013
</metadata>
<g transform="translate(0.000000,269.000000) scale(0.100000,-0.100000)"
fill="#000000" stroke="none">
<path d="M1244 2512 c-200 -107 -869 -501 -880 -518 -8 -12 -12 -28 -8 -37 3
-9 214 -136 467 -283 l462 -268 60 0 60 0 430 248 c237 137 445 260 463 273
36 27 41 52 14 75 -16 15 -828 486 -899 522 -48 24 -110 20 -169 -12z"/>
<path d="M1906 1590 c-236 -137 -441 -261 -457 -276 -15 -14 -32 -38 -38 -53
-8 -18 -10 -187 -9 -537 l3 -512 380 655 c209 361 421 727 472 814 50 88 89
159 85 158 -4 0 -200 -113 -436 -249z"/>
<path d="M1963 980 c-260 -447 -471 -816 -469 -818 9 -8 863 492 893 523 17
18 37 51 42 73 8 26 10 208 9 538 l-3 499 -472 -815z"/>
<path d="M473 1661 c-212 -54 -279 -332 -162 -667 100 -286 317 -538 544 -633
49 -21 77 -26 150 -26 80 0 95 3 137 27 230 136 188 609 -86 974 -62 84 -189
202 -264 248 -110 66 -238 98 -319 77z"/>
</g>
</svg>
